{
	"asset":{
		"generator":"Khronos glTF Blender I/O v3.5.30",
		"version":"2.0"
	},
	"scene":0,
	"scenes":[
		{
			"extras":{
				"b_export":1,
				"s_project_name":"aframe--candyland",
				"export_path":"C:\\Users\\saqib\\Downloads\\Candyland\\Candyland",
				"s_output":"exporting..."
			},
			"name":"Scene",
			"nodes":[
				0
			]
		}
	],
	"nodes":[
		{
			"mesh":0,
			"name":"Loli-Flach-Spirale-Stiel-CW.001",
			"rotation":[
				-0.9047515392303467,
				-0.19235579669475555,
				-0.01895192079246044,
				0.3795589208602905
			],
			"scale":[
				0.04999999329447746,
				1.25,
				0.05000000074505806
			]
		}
	],
	"materials":[
		{
			"doubleSided":true,
			"name":"Plastic White 15.003",
			"pbrMetallicRoughness":{
				"baseColorFactor":[
					0.08000000566244125,
					0.08000000566244125,
					0.08000000566244125,
					1
				],
				"metallicFactor":0.37272727489471436,
				"metallicRoughnessTexture":{
					"index":0
				}
			}
		}
	],
	"meshes":[
		{
			"name":"Cylinder.018",
			"primitives":[
				{
					"attributes":{
						"POSITION":0,
						"TEXCOORD_0":1,
						"TEXCOORD_1":2,
						"NORMAL":3
					},
					"indices":4,
					"material":0
				}
			]
		}
	],
	"textures":[
		{
			"sampler":0,
			"source":0
		}
	],
	"images":[
		{
			"bufferView":5,
			"mimeType":"image/png",
			"name":"Image"
		}
	],
	"accessors":[
		{
			"bufferView":0,
			"componentType":5126,
			"count":192,
			"max":[
				1,
				1,
				1
			],
			"min":[
				-1,
				-1,
				-1
			],
			"type":"VEC3"
		},
		{
			"bufferView":1,
			"componentType":5126,
			"count":192,
			"type":"VEC2"
		},
		{
			"bufferView":2,
			"componentType":5126,
			"count":192,
			"type":"VEC2"
		},
		{
			"bufferView":3,
			"componentType":5126,
			"count":192,
			"type":"VEC3"
		},
		{
			"bufferView":4,
			"componentType":5123,
			"count":372,
			"type":"SCALAR"
		}
	],
	"bufferViews":[
		{
			"buffer":0,
			"byteLength":2304,
			"byteOffset":0,
			"target":34962
		},
		{
			"buffer":0,
			"byteLength":1536,
			"byteOffset":2304,
			"target":34962
		},
		{
			"buffer":0,
			"byteLength":1536,
			"byteOffset":3840,
			"target":34962
		},
		{
			"buffer":0,
			"byteLength":2304,
			"byteOffset":5376,
			"target":34962
		},
		{
			"buffer":0,
			"byteLength":744,
			"byteOffset":7680,
			"target":34963
		},
		{
			"buffer":0,
			"byteLength":90,
			"byteOffset":8424
		}
	],
	"samplers":[
		{
			"magFilter":9729,
			"minFilter":9987
		}
	],
	"buffers":[
		{
			"byteLength":8516,
			"uri":"data:application/octet-stream;base64,"
		}
	]
}
