{
	"asset":{
		"generator":"Khronos glTF Blender I/O v3.5.30",
		"version":"2.0"
	},
	"scene":0,
	"scenes":[
		{
			"extras":{
				"b_export":1,
				"s_project_name":"aframe--candyland",
				"export_path":"C:\\Users\\saqib\\Downloads\\Candyland\\Candyland",
				"s_output":"exporting..."
			},
			"name":"Scene",
			"nodes":[
				0
			]
		}
	],
	"nodes":[
		{
			"mesh":0,
			"name":"Loli-Dunkel-Gestreift-Kugel-CW"
		}
	],
	"materials":[
		{
			"doubleSided":true,
			"name":"Candy.001",
			"pbrMetallicRoughness":{}
		}
	],
	"meshes":[
		{
			"name":"Sphere.004",
			"primitives":[
				{
					"attributes":{
						"POSITION":0,
						"TEXCOORD_0":1,
						"TEXCOORD_1":2,
						"NORMAL":3,
						"TANGENT":4
					},
					"indices":5,
					"material":0
				}
			]
		}
	],
	"accessors":[
		{
			"bufferView":0,
			"componentType":5126,
			"count":1984,
			"max":[
				0.9999995827674866,
				1,
				0.9999993443489075
			],
			"min":[
				-0.9999991655349731,
				-1,
				-1
			],
			"type":"VEC3"
		},
		{
			"bufferView":1,
			"componentType":5126,
			"count":1984,
			"type":"VEC2"
		},
		{
			"bufferView":2,
			"componentType":5126,
			"count":1984,
			"type":"VEC2"
		},
		{
			"bufferView":3,
			"componentType":5126,
			"count":1984,
			"type":"VEC3"
		},
		{
			"bufferView":4,
			"componentType":5126,
			"count":1984,
			"type":"VEC4"
		},
		{
			"bufferView":5,
			"componentType":5123,
			"count":2880,
			"type":"SCALAR"
		}
	],
	"bufferViews":[
		{
			"buffer":0,
			"byteLength":23808,
			"byteOffset":0,
			"target":34962
		},
		{
			"buffer":0,
			"byteLength":15872,
			"byteOffset":23808,
			"target":34962
		},
		{
			"buffer":0,
			"byteLength":15872,
			"byteOffset":39680,
			"target":34962
		},
		{
			"buffer":0,
			"byteLength":23808,
			"byteOffset":55552,
			"target":34962
		},
		{
			"buffer":0,
			"byteLength":31744,
			"byteOffset":79360,
			"target":34962
		},
		{
			"buffer":0,
			"byteLength":5760,
			"byteOffset":111104,
			"target":34963
		}
	],
	"buffers":[
		{
			"byteLength":116864,
			"uri":"data:application/octet-stream;base64,"
		}
	]
}
