{
	"asset":{
		"generator":"Khronos glTF Blender I/O v3.5.30",
		"version":"2.0"
	},
	"scene":0,
	"scenes":[
		{
			"extras":{
				"b_export":1,
				"s_project_name":"aframe--candyland",
				"export_path":"C:\\Users\\saqib\\Downloads\\Candyland\\Candyland",
				"s_output":"exporting..."
			},
			"name":"Scene",
			"nodes":[
				0
			]
		}
	],
	"nodes":[
		{
			"mesh":0,
			"name":"Loli-Pink-Kugel-liegend",
			"rotation":[
				0,
				0,
				-0.5970523357391357,
				0.8022022843360901
			]
		}
	],
	"materials":[
		{
			"doubleSided":true,
			"name":"Lolly Pop Candy.002",
			"pbrMetallicRoughness":{
				"baseColorFactor":[
					1,
					0.021352136507630348,
					0.11567088216543198,
					1
				],
				"metallicFactor":0,
				"roughnessFactor":0.15000000596046448
			}
		}
	],
	"meshes":[
		{
			"name":"Sphere.007",
			"primitives":[
				{
					"attributes":{
						"POSITION":0,
						"TEXCOORD_0":1,
						"TEXCOORD_1":2,
						"NORMAL":3,
						"TANGENT":4
					},
					"indices":5,
					"material":0
				}
			]
		}
	],
	"accessors":[
		{
			"bufferView":0,
			"componentType":5126,
			"count":881,
			"max":[
				1.0380451679229736,
				1,
				1.038044810295105
			],
			"min":[
				-1.0380444526672363,
				-1,
				-1.0380452871322632
			],
			"type":"VEC3"
		},
		{
			"bufferView":1,
			"componentType":5126,
			"count":881,
			"type":"VEC2"
		},
		{
			"bufferView":2,
			"componentType":5126,
			"count":881,
			"type":"VEC2"
		},
		{
			"bufferView":3,
			"componentType":5126,
			"count":881,
			"type":"VEC3"
		},
		{
			"bufferView":4,
			"componentType":5126,
			"count":881,
			"type":"VEC4"
		},
		{
			"bufferView":5,
			"componentType":5123,
			"count":3264,
			"type":"SCALAR"
		}
	],
	"bufferViews":[
		{
			"buffer":0,
			"byteLength":10572,
			"byteOffset":0,
			"target":34962
		},
		{
			"buffer":0,
			"byteLength":7048,
			"byteOffset":10572,
			"target":34962
		},
		{
			"buffer":0,
			"byteLength":7048,
			"byteOffset":17620,
			"target":34962
		},
		{
			"buffer":0,
			"byteLength":10572,
			"byteOffset":24668,
			"target":34962
		},
		{
			"buffer":0,
			"byteLength":14096,
			"byteOffset":35240,
			"target":34962
		},
		{
			"buffer":0,
			"byteLength":6528,
			"byteOffset":49336,
			"target":34963
		}
	],
	"buffers":[
		{
			"byteLength":55864,
			"uri":"data:application/octet-stream;base64,"
		}
	]
}
