{
	"asset":{
		"generator":"Khronos glTF Blender I/O v3.5.30",
		"version":"2.0"
	},
	"scene":0,
	"scenes":[
		{
			"extras":{
				"b_export":1,
				"s_project_name":"aframe--candyland",
				"export_path":"C:\\Users\\saqib\\Downloads\\Candyland\\Candyland",
				"s_output":"exporting..."
			},
			"name":"Scene",
			"nodes":[
				0
			]
		}
	],
	"nodes":[
		{
			"mesh":0,
			"name":"Zaeltli-Spirale-CW.002",
			"rotation":[
				0,
				0.3007057309150696,
				0,
				0.9537169933319092
			],
			"scale":[
				0.5,
				1,
				0.5
			]
		}
	],
	"materials":[
		{
			"doubleSided":true,
			"name":"Loli-Spirale.005",
			"pbrMetallicRoughness":{
				"baseColorTexture":{
					"index":0
				},
				"metallicFactor":0,
				"roughnessFactor":0
			}
		}
	],
	"meshes":[
		{
			"name":"Cylinder.016",
			"primitives":[
				{
					"attributes":{
						"POSITION":0,
						"TEXCOORD_0":1,
						"NORMAL":2
					},
					"indices":3,
					"material":0
				}
			]
		}
	],
	"textures":[
		{
			"sampler":0,
			"source":0
		}
	],
	"images":[
		{
			"bufferView":4,
			"mimeType":"image/jpeg",
			"name":"bunte-lolipop-auf-weissem-hintergrund-pmytww"
		}
	],
	"accessors":[
		{
			"bufferView":0,
			"componentType":5126,
			"count":960,
			"max":[
				1,
				0.15000000596046448,
				0.9999999403953552
			],
			"min":[
				-1,
				-0.15000000596046448,
				-1
			],
			"type":"VEC3"
		},
		{
			"bufferView":1,
			"componentType":5126,
			"count":960,
			"type":"VEC2"
		},
		{
			"bufferView":2,
			"componentType":5126,
			"count":960,
			"type":"VEC3"
		},
		{
			"bufferView":3,
			"componentType":5123,
			"count":1524,
			"type":"SCALAR"
		}
	],
	"bufferViews":[
		{
			"buffer":0,
			"byteLength":11520,
			"byteOffset":0,
			"target":34962
		},
		{
			"buffer":0,
			"byteLength":7680,
			"byteOffset":11520,
			"target":34962
		},
		{
			"buffer":0,
			"byteLength":11520,
			"byteOffset":19200,
			"target":34962
		},
		{
			"buffer":0,
			"byteLength":3048,
			"byteOffset":30720,
			"target":34963
		},
		{
			"buffer":0,
			"byteLength":21547,
			"byteOffset":33768
		}
	],
	"samplers":[
		{
			"magFilter":9729,
			"minFilter":9987
		}
	],
	"buffers":[
		{
			"byteLength":55316,
			"uri":"data:application/octet-stream;base64,"
		}
	]
}
