{
	"asset":{
		"generator":"Khronos glTF Blender I/O v3.5.30",
		"version":"2.0"
	},
	"scene":0,
	"scenes":[
		{
			"extras":{
				"b_export":1,
				"s_project_name":"aframe--candyland",
				"export_path":"C:\\Users\\saqib\\Downloads\\Candyland\\Candyland",
				"s_output":"exporting..."
			},
			"name":"Scene",
			"nodes":[
				0
			]
		}
	],
	"nodes":[
		{
			"mesh":0,
			"name":"zuckerstange.002",
			"rotation":[
				0.7071068286895752,
				0,
				0,
				0.7071068286895752
			]
		}
	],
	"materials":[
		{
			"doubleSided":true,
			"name":"Candy Cane.004",
			"normalTexture":{
				"index":0
			},
			"pbrMetallicRoughness":{
				"baseColorTexture":{
					"index":1
				},
				"metallicFactor":0,
				"metallicRoughnessTexture":{
					"index":2
				}
			}
		}
	],
	"meshes":[
		{
			"name":"Torus.003",
			"primitives":[
				{
					"attributes":{
						"POSITION":0,
						"TEXCOORD_0":1,
						"TEXCOORD_1":2,
						"NORMAL":3,
						"TANGENT":4
					},
					"indices":5,
					"material":0
				}
			]
		}
	],
	"textures":[
		{
			"sampler":0,
			"source":0
		},
		{
			"sampler":0,
			"source":1
		},
		{
			"sampler":0,
			"source":2
		}
	],
	"images":[
		{
			"bufferView":6,
			"mimeType":"image/jpeg",
			"name":"Food_CandyCane_normal"
		},
		{
			"bufferView":7,
			"mimeType":"image/jpeg",
			"name":"Food_CandyCane_basecolor"
		},
		{
			"bufferView":8,
			"mimeType":"image/png",
			"name":"Food_CandyCane_roughness"
		}
	],
	"accessors":[
		{
			"bufferView":0,
			"componentType":5126,
			"count":1296,
			"max":[
				0.6079042553901672,
				0.12500008940696716,
				2.2041072845458984
			],
			"min":[
				-0.6420957446098328,
				-0.125,
				-0.43130579590797424
			],
			"type":"VEC3"
		},
		{
			"bufferView":1,
			"componentType":5126,
			"count":1296,
			"type":"VEC2"
		},
		{
			"bufferView":2,
			"componentType":5126,
			"count":1296,
			"type":"VEC2"
		},
		{
			"bufferView":3,
			"componentType":5126,
			"count":1296,
			"type":"VEC3"
		},
		{
			"bufferView":4,
			"componentType":5126,
			"count":1296,
			"type":"VEC4"
		},
		{
			"bufferView":5,
			"componentType":5123,
			"count":1944,
			"type":"SCALAR"
		}
	],
	"bufferViews":[
		{
			"buffer":0,
			"byteLength":15552,
			"byteOffset":0,
			"target":34962
		},
		{
			"buffer":0,
			"byteLength":10368,
			"byteOffset":15552,
			"target":34962
		},
		{
			"buffer":0,
			"byteLength":10368,
			"byteOffset":25920,
			"target":34962
		},
		{
			"buffer":0,
			"byteLength":15552,
			"byteOffset":36288,
			"target":34962
		},
		{
			"buffer":0,
			"byteLength":20736,
			"byteOffset":51840,
			"target":34962
		},
		{
			"buffer":0,
			"byteLength":3888,
			"byteOffset":72576,
			"target":34963
		},
		{
			"buffer":0,
			"byteLength":361558,
			"byteOffset":76464
		},
		{
			"buffer":0,
			"byteLength":511965,
			"byteOffset":438024
		},
		{
			"buffer":0,
			"byteLength":393845,
			"byteOffset":949992
		}
	],
	"samplers":[
		{
			"magFilter":9729,
			"minFilter":9987
		}
	],
	"buffers":[
		{
			"byteLength":1343840,
			"uri":"data:application/octet-stream;base64,"
		}
	]
}
